<svg width="450" height="100" viewBox="0 0 450 100" fill="none" xmlns="http://www.w3.org/2000/svg">
<rect x="1" y="1" width="448" height="98" rx="49" fill="white" stroke="#3C3C3C" stroke-width="2"/>
<path d="M317.752 29.732L317.716 32.2881C317.716 32.6121 317.536 32.756 317.176 32.756L311.488 32.9001C311.164 32.9001 310.984 33.0801 310.948 33.4401L310.588 40.064C310.588 40.316 310.588 40.712 310.624 41.216C310.696 41.756 310.696 42.152 310.696 42.368C310.696 44.816 310.228 47.984 309.22 51.8C309.148 52.124 308.932 52.2681 308.608 52.2681L304.936 52.3041C304.792 52.3041 304.684 52.268 304.612 52.196C304.54 52.124 304.54 51.98 304.576 51.8C304.828 50.828 305.08 49.7481 305.332 48.5961C305.368 48.4881 305.332 48.38 305.224 48.308C305.152 48.2 305.044 48.2001 304.936 48.2001C304.684 48.2361 304.396 48.272 304.072 48.272C302.416 48.272 301.12 47.7321 300.184 46.6521C299.212 45.536 298.78 44.1681 298.852 42.5121C298.924 40.7481 299.536 39.3441 300.652 38.3721C301.732 37.3641 303.208 36.896 305.008 36.932C305.188 36.932 305.404 36.932 305.692 36.968C306.016 37.04 306.232 36.896 306.232 36.572C306.304 35.636 306.34 34.6281 306.376 33.5841C306.376 33.4401 306.34 33.332 306.232 33.224C306.16 33.116 306.016 33.044 305.908 33.044L295.972 33.26C295.648 33.296 295.468 33.152 295.468 32.756V30.2361C295.468 29.8761 295.648 29.732 296.008 29.732L306.016 29.516C306.376 29.516 306.52 29.3361 306.556 28.976L306.736 24.0441C306.736 23.7201 306.916 23.576 307.276 23.576H310.84C311.2 23.576 311.38 23.72 311.344 24.008L311.128 28.8681C311.128 28.976 311.2 29.084 311.272 29.192C311.38 29.3 311.488 29.3721 311.632 29.3721L317.212 29.228C317.356 29.228 317.464 29.264 317.572 29.3721C317.68 29.444 317.752 29.588 317.752 29.732ZM306.232 42.0801C306.232 41.0001 305.764 40.46 304.792 40.424C303.46 40.424 302.776 41.144 302.74 42.584C302.704 43.088 302.812 43.5201 303.1 43.916C303.352 44.3121 303.748 44.528 304.216 44.6C304.756 44.636 305.26 44.492 305.728 44.204C306.052 43.952 306.232 43.2681 306.232 42.0801Z" fill="#282828"/>
<path d="M279.376 45.68C279.088 45.896 278.836 45.896 278.584 45.644L276.388 43.196C276.136 42.908 276.136 42.692 276.388 42.476C278.116 40.892 279.052 39.524 279.232 38.336C279.304 37.652 279.16 37.148 278.728 36.788C278.296 36.428 277.756 36.248 277.072 36.248C275.056 36.284 272.716 36.428 270.016 36.752C269.656 36.788 269.476 36.968 269.476 37.292L269.404 50.396C269.404 50.72 269.26 50.864 268.936 50.864H265.336C264.976 50.864 264.796 50.72 264.796 50.396L264.904 37.94C264.904 37.796 264.868 37.688 264.76 37.58C264.688 37.508 264.58 37.472 264.436 37.472C263.5 37.616 261.916 37.868 259.72 38.192C259.36 38.228 259.18 38.084 259.144 37.76L258.892 35.168C258.892 34.808 259.036 34.628 259.36 34.556C259.864 34.484 261.556 34.232 264.472 33.836C264.796 33.764 264.94 33.584 264.94 33.26L264.976 26.924C264.976 26.6 265.156 26.42 265.48 26.42L269.08 26.384C269.188 26.384 269.332 26.42 269.404 26.528C269.512 26.636 269.548 26.744 269.548 26.888L269.512 32.684C269.512 32.792 269.584 32.936 269.692 33.008C269.8 33.116 269.908 33.152 270.052 33.116C270.52 33.08 271.312 33.008 272.392 32.9C272.752 32.9 272.968 32.72 273.004 32.396L274.156 25.7C274.192 25.376 274.408 25.232 274.732 25.268L277.972 25.7C278.296 25.736 278.404 25.952 278.332 26.276L277.288 32.216C277.216 32.54 277.36 32.72 277.72 32.756C279.412 32.828 280.816 33.332 281.932 34.232C283.12 35.24 283.732 36.572 283.732 38.228C283.732 40.712 282.256 43.196 279.376 45.68Z" fill="#282828"/>
<path d="M248.416 30.524L248.272 32.756C248.236 33.08 248.056 33.26 247.696 33.26H240.064C239.74 33.26 239.56 33.44 239.56 33.764L239.344 38.876C239.308 39.236 239.488 39.416 239.848 39.416H246.112C246.472 39.416 246.652 39.596 246.616 39.92L246.508 42.044C246.472 42.404 246.328 42.584 245.968 42.584H239.704C239.38 42.584 239.2 42.764 239.164 43.088L238.912 48.416C238.876 48.776 239.056 48.956 239.416 48.956H247.192C247.516 48.956 247.696 49.1 247.66 49.424L247.552 51.656C247.552 51.98 247.372 52.16 247.048 52.16H225.52C225.16 52.16 225.016 51.98 225.016 51.656L225.16 49.424C225.196 49.1 225.376 48.956 225.736 48.956H233.872C234.196 48.956 234.376 48.776 234.376 48.416L234.592 43.088C234.628 42.764 234.448 42.584 234.088 42.584H227.896C227.536 42.584 227.356 42.404 227.392 42.044L227.536 39.92C227.536 39.596 227.752 39.416 228.076 39.416H234.232C234.556 39.416 234.736 39.236 234.772 38.876L235.024 33.764C235.024 33.44 234.88 33.26 234.52 33.26L230.092 33.224C229.732 33.224 229.516 33.404 229.408 33.728C229.012 34.736 228.544 35.888 227.932 37.184C227.824 37.436 227.572 37.508 227.284 37.364L224.008 35.816C223.72 35.708 223.612 35.456 223.756 35.132C225.052 32.18 226.204 29.048 227.248 25.736C227.356 25.412 227.572 25.304 227.896 25.376L231.28 26.348C231.604 26.42 231.712 26.636 231.604 26.924L230.812 29.552C230.704 29.876 230.848 30.02 231.172 30.02H234.664C234.988 30.02 235.168 29.84 235.204 29.516L235.384 24.224C235.42 23.9 235.6 23.756 235.924 23.756H239.452C239.812 23.756 239.956 23.9 239.92 24.26L239.74 29.516C239.704 29.84 239.884 30.02 240.208 30.02H247.912C248.272 30.02 248.416 30.2 248.416 30.524Z" fill="#282828"/>
<path d="M208.564 27.752L208.384 30.164C208.348 30.524 208.168 30.704 207.844 30.704H200.464C200.14 30.704 199.96 30.848 199.888 31.208L199.276 34.52C199.204 34.844 199.312 35.132 199.636 35.312C200.356 35.744 201.04 36.248 201.616 36.86C201.904 37.076 202.12 37.112 202.372 36.932C202.912 36.464 203.776 35.78 204.964 34.88C205.252 34.664 205.504 34.7 205.72 34.988L207.7 37.472C207.916 37.76 207.88 37.976 207.628 38.228L204.856 40.388C204.604 40.604 204.568 40.856 204.712 41.18C205.144 41.936 205.468 42.548 205.684 43.088C205.828 43.412 205.72 43.664 205.432 43.808L203.38 44.924C203.128 45.104 202.84 44.96 202.588 44.492C202.48 44.168 202.336 43.88 202.192 43.592C201.976 43.232 201.76 43.196 201.544 43.412C199.996 45.032 199.204 46.22 199.204 47.012C199.204 47.732 199.6 48.128 200.32 48.2C201.076 48.308 202.588 48.272 204.784 48.092C205.18 48.092 205.36 48.236 205.36 48.56V51.152C205.36 51.476 205.216 51.656 204.892 51.692C202.876 51.836 201.076 51.836 199.528 51.728C197.944 51.62 196.756 51.08 195.928 50.144C195.1 49.208 194.776 47.948 194.884 46.364C195.028 44.456 196.396 42.26 198.952 39.848C199.204 39.596 199.204 39.38 198.952 39.164C197.836 38.228 196.468 37.508 194.812 37.076C194.452 36.968 194.308 36.752 194.38 36.428L195.352 31.244C195.424 30.884 195.28 30.704 194.92 30.704H192.436C192.112 30.704 191.932 30.524 191.968 30.2L192.148 27.752C192.148 27.428 192.328 27.248 192.652 27.248H195.568C195.892 27.248 196.072 27.104 196.144 26.744L196.828 23.072C196.9 22.748 197.08 22.568 197.404 22.568H200.932C201.292 22.568 201.436 22.748 201.364 23.072L200.68 26.744C200.644 26.924 200.68 27.032 200.752 27.14C200.824 27.212 200.932 27.248 201.112 27.248L208.06 27.212C208.24 27.212 208.384 27.248 208.456 27.356C208.564 27.464 208.6 27.572 208.564 27.752Z" fill="#282828"/>
<path d="M172.06 47.552C172.204 47.84 172.132 48.092 171.808 48.236C168.496 49.964 166.084 50.828 164.608 50.828C162.34 50.828 160.792 49.928 160 48.128C159.424 46.832 159.208 44.924 159.316 42.368C159.424 39.992 159.784 34.808 160.324 26.744C160.324 26.42 160.504 26.276 160.864 26.276H164.428C164.752 26.276 164.896 26.456 164.86 26.78C164.32 34.304 163.96 39.632 163.852 42.764C163.816 44.204 163.816 45.104 163.852 45.428C164.032 46.616 164.536 47.084 165.436 46.832C166.264 46.616 167.812 45.932 170.116 44.816C170.404 44.708 170.656 44.744 170.8 45.032L172.06 47.552Z" fill="#282828"/>
<path d="M140.992 38.48C141.208 38.732 141.172 38.984 140.884 39.2L139.876 39.992C139.588 40.172 139.516 40.424 139.552 40.712C139.66 41.36 139.696 42.116 139.66 42.944C139.516 45.644 138.436 48.452 136.456 51.368C136.24 51.692 135.988 51.728 135.7 51.548L132.64 49.532C132.388 49.352 132.316 49.136 132.532 48.884C133.972 46.904 134.872 45.104 135.232 43.484C135.232 43.412 135.232 43.34 135.16 43.268C135.088 43.232 135.016 43.232 134.944 43.268C133.18 44.564 131.164 45.752 128.932 46.868C126.484 48.056 124.648 48.668 123.46 48.704C120.688 48.74 119.284 47.192 119.176 44.06C119.14 42.08 119.716 40.316 120.94 38.768C122.092 37.364 123.64 36.284 125.584 35.564C125.908 35.42 126.088 35.204 126.124 34.88L126.376 31.568C126.376 31.244 126.232 31.1 125.908 31.1H121.408C121.084 31.1 120.94 30.92 120.94 30.56L121.12 28.004C121.156 27.68 121.336 27.5 121.696 27.5H126.16C126.484 27.5 126.664 27.32 126.664 26.96L126.916 23.756C126.952 23.432 127.132 23.252 127.456 23.252L131.02 23.288C131.344 23.288 131.488 23.468 131.452 23.792L131.236 26.96C131.236 27.32 131.38 27.5 131.74 27.5H139.192C139.516 27.5 139.66 27.68 139.66 28.004L139.444 30.56C139.408 30.92 139.228 31.1 138.868 31.1H131.488C131.128 31.1 130.948 31.244 130.948 31.568L130.768 34.124C130.732 34.448 130.912 34.592 131.236 34.592C133.576 34.664 135.52 35.276 137.068 36.464C137.356 36.716 137.644 36.716 137.896 36.5L138.544 35.996C138.796 35.78 139.012 35.816 139.228 36.104L140.992 38.48ZM133.612 39.488C133.972 39.236 133.972 39.02 133.612 38.804C132.928 38.444 131.992 38.264 130.768 38.264C130.444 38.264 130.264 38.444 130.228 38.84L130.084 41C130.084 41.108 130.12 41.216 130.192 41.252C130.264 41.288 130.336 41.324 130.408 41.324C130.444 41.324 130.516 41.288 130.588 41.288C131.56 40.748 132.568 40.136 133.612 39.488ZM125.872 40.244C125.872 40.136 125.836 40.064 125.728 39.992C125.62 39.92 125.548 39.956 125.44 40.028C124.648 40.568 124 41.288 123.532 42.188C123.172 42.8 123.028 43.34 123.028 43.808C123.028 43.988 123.064 44.168 123.136 44.312C123.208 44.672 123.496 44.708 124.036 44.492L125.044 44.06C125.44 43.88 125.62 43.628 125.656 43.232L125.872 40.244Z" fill="#282828"/>
<path d="M284.139 70.6801C284.139 70.8401 284.075 70.9041 283.915 70.9041L282.667 70.9201C282.523 70.9201 282.443 70.8401 282.427 70.6801C282.379 70.1041 282.075 69.8001 281.499 69.8001C281.163 69.7841 280.891 69.8641 280.667 70.0081C280.411 70.1841 280.299 70.4241 280.299 70.7441C280.299 71.0801 280.411 71.3361 280.667 71.5601C280.795 71.6721 281.067 71.8321 281.483 72.0241C282.251 72.3921 282.795 72.7441 283.099 73.0641C283.563 73.5441 283.787 74.1201 283.755 74.7921C283.691 76.4081 282.715 77.2081 280.811 77.2081C280.027 77.2081 279.387 77.0001 278.891 76.5841C278.379 76.1681 278.107 75.5921 278.059 74.8241C278.043 74.6641 278.107 74.6001 278.267 74.6001H279.579C279.707 74.6001 279.787 74.6641 279.819 74.8241C279.931 75.3361 280.235 75.5761 280.763 75.5921C281.483 75.6081 281.851 75.3361 281.851 74.7281C281.867 74.4401 281.739 74.2001 281.499 73.9921C281.355 73.8641 281.099 73.7041 280.763 73.5121C279.963 73.0961 279.419 72.7281 279.115 72.4241C278.635 71.9441 278.411 71.3681 278.443 70.6961C278.539 69.1761 279.531 68.3921 281.435 68.3601C282.219 68.3441 282.859 68.5361 283.323 68.9041C283.835 69.3201 284.107 69.9121 284.139 70.6801Z" fill="#282828"/>
<path d="M275.456 68.7279L275.024 76.6479C274.96 77.7519 274.64 78.5999 274.08 79.2239C273.472 79.8639 272.624 80.1839 271.552 80.1839C270.832 80.1839 270.144 80.1039 269.504 79.9599C269.36 79.9279 269.296 79.8319 269.296 79.6719L269.328 78.4719C269.328 78.3279 269.408 78.2639 269.552 78.2959C270.416 78.5039 271.168 78.5679 271.76 78.4719C272.416 78.3759 272.832 77.9119 273.008 77.0959C273.008 76.9519 272.944 76.8879 272.832 76.9359C272.448 77.0799 272.064 77.1439 271.648 77.1599C270.384 77.1759 269.456 76.7599 268.864 75.8959C268.336 75.1279 268.112 74.1039 268.176 72.7919C268.304 69.8959 269.552 68.4399 271.92 68.4399C272.4 68.4399 272.848 68.5199 273.28 68.6959C273.392 68.7439 273.488 68.6959 273.584 68.5839C273.616 68.5359 273.664 68.5199 273.744 68.5199H275.232C275.392 68.5199 275.472 68.5839 275.456 68.7279ZM273.264 72.7279C273.296 71.8799 273.28 71.3039 273.184 70.9839C273.04 70.4079 272.624 70.0879 271.952 70.0399C271.232 70.0719 270.736 70.3919 270.432 70.9839C270.24 71.4159 270.128 72.0239 270.112 72.8399C270.064 74.6319 270.592 75.5439 271.68 75.5599C272.304 75.5759 272.736 75.2399 273.008 74.5519C273.152 74.1359 273.232 73.5439 273.264 72.7279Z" fill="#282828"/>
<path d="M265.596 73.112C265.58 73.256 265.5 73.336 265.34 73.336H260.188C260.028 73.336 259.964 73.416 259.964 73.56C260.012 75 260.636 75.72 261.836 75.72C262.668 75.72 263.18 75.288 263.404 74.44C263.436 74.28 263.532 74.2 263.676 74.2H265.196C265.356 74.2 265.42 74.28 265.388 74.424C265.212 75.336 264.812 76.024 264.172 76.52C263.548 77.016 262.764 77.256 261.82 77.256C260.444 77.224 259.436 76.856 258.812 76.104C258.22 75.416 257.948 74.36 257.98 72.936C258.044 69.88 259.404 68.36 262.044 68.36C264.444 68.36 265.628 69.656 265.628 72.232C265.628 72.456 265.612 72.744 265.596 73.112ZM263.74 71.608C263.756 71.064 263.612 70.616 263.308 70.296C263.02 69.976 262.588 69.816 262.044 69.832C261.5 69.832 261.052 70.008 260.7 70.328C260.364 70.664 260.156 71.096 260.092 71.64C260.076 71.784 260.14 71.848 260.284 71.848H263.516C263.66 71.848 263.74 71.768 263.74 71.608Z" fill="#282828"/>
<path d="M255.377 65.672L254.801 76.808C254.785 76.952 254.705 77.032 254.561 77.032H253.057C252.913 77.032 252.833 76.952 252.849 76.792L253.425 65.672C253.441 65.512 253.505 65.432 253.665 65.432H255.153C255.313 65.432 255.393 65.512 255.377 65.672Z" fill="#282828"/>
<path d="M242.595 68.76L239.363 76.808C239.315 76.952 239.203 77.016 239.043 77.016H237.779C237.635 77.016 237.539 76.936 237.507 76.792L236.003 71.48C235.987 71.448 235.971 71.416 235.923 71.416C235.891 71.416 235.875 71.432 235.859 71.464L233.651 76.776C233.603 76.92 233.507 76.984 233.347 76.984H232.019C231.859 76.984 231.763 76.904 231.731 76.744L229.939 68.744C229.907 68.6 229.971 68.536 230.115 68.536H231.651C231.811 68.536 231.907 68.6 231.939 68.744L233.027 73.896C233.027 73.928 233.059 73.944 233.091 73.944C233.123 73.944 233.139 73.944 233.155 73.912L235.299 68.744C235.363 68.6 235.459 68.536 235.603 68.536L236.963 68.552C237.123 68.552 237.203 68.616 237.251 68.76L238.691 74.136C238.691 74.168 238.707 74.184 238.755 74.184C238.787 74.2 238.819 74.184 238.835 74.136L240.995 68.76C241.059 68.616 241.171 68.552 241.315 68.552H242.451C242.611 68.552 242.659 68.616 242.595 68.76Z" fill="#282828"/>
<path d="M227.378 72.872C227.218 75.736 225.906 77.16 223.458 77.16C222.194 77.16 221.234 76.744 220.594 75.944C220.002 75.192 219.73 74.184 219.762 72.872C219.794 71.528 220.146 70.456 220.802 69.688C221.506 68.872 222.53 68.456 223.874 68.488C225.282 68.52 226.29 69.08 226.866 70.168C227.266 70.936 227.442 71.832 227.378 72.872ZM225.474 72.376C225.474 70.808 224.898 70.024 223.746 70.008C223.026 70.008 222.482 70.328 222.13 70.968C221.858 71.48 221.698 72.12 221.698 72.904C221.682 73.608 221.794 74.184 222.002 74.664C222.29 75.288 222.738 75.592 223.362 75.608C224.77 75.624 225.474 74.552 225.474 72.376Z" fill="#282828"/>
<path d="M217.271 69.48C217.367 69.592 217.351 69.704 217.239 69.8C216.615 70.28 215.975 70.744 215.351 71.224C214.631 71.784 214.039 72.28 213.527 72.728C213.431 72.824 213.367 72.952 213.367 73.112L213.175 76.824C213.159 76.968 213.079 77.048 212.935 77.048H211.431C211.287 77.048 211.207 76.968 211.223 76.808L211.639 68.728C211.655 68.584 211.735 68.504 211.895 68.504H213.367C213.527 68.504 213.607 68.584 213.591 68.728L213.495 70.44C213.495 70.472 213.527 70.504 213.559 70.536C213.575 70.536 213.591 70.552 213.607 70.552C213.623 70.552 213.639 70.536 213.655 70.536C214.263 69.992 215.111 69.32 216.183 68.536C216.295 68.44 216.407 68.456 216.519 68.584L217.271 69.48Z" fill="#282828"/>
<path d="M208.509 68.7279L208.077 76.6479C208.013 77.7519 207.693 78.5999 207.133 79.2239C206.525 79.8639 205.677 80.1839 204.605 80.1839C203.885 80.1839 203.197 80.1039 202.557 79.9599C202.413 79.9279 202.349 79.8319 202.349 79.6719L202.381 78.4719C202.381 78.3279 202.461 78.2639 202.605 78.2959C203.469 78.5039 204.221 78.5679 204.813 78.4719C205.469 78.3759 205.885 77.9119 206.061 77.0959C206.061 76.9519 205.997 76.8879 205.885 76.9359C205.501 77.0799 205.117 77.1439 204.701 77.1599C203.437 77.1759 202.509 76.7599 201.917 75.8959C201.389 75.1279 201.165 74.1039 201.229 72.7919C201.357 69.8959 202.605 68.4399 204.973 68.4399C205.453 68.4399 205.901 68.5199 206.333 68.6959C206.445 68.7439 206.541 68.6959 206.637 68.5839C206.669 68.5359 206.717 68.5199 206.797 68.5199H208.285C208.445 68.5199 208.525 68.5839 208.509 68.7279ZM206.317 72.7279C206.349 71.8799 206.333 71.3039 206.237 70.9839C206.093 70.4079 205.677 70.0879 205.005 70.0399C204.285 70.0719 203.789 70.3919 203.485 70.9839C203.293 71.4159 203.181 72.0239 203.165 72.8399C203.117 74.6319 203.645 75.5439 204.733 75.5599C205.357 75.5759 205.789 75.2399 206.061 74.5519C206.205 74.1359 206.285 73.5439 206.317 72.7279Z" fill="#282828"/>
<path d="M190.948 70.6801C190.948 70.8401 190.884 70.9041 190.724 70.9041L189.476 70.9201C189.332 70.9201 189.252 70.8401 189.236 70.6801C189.188 70.1041 188.884 69.8001 188.308 69.8001C187.972 69.7841 187.7 69.8641 187.476 70.0081C187.22 70.1841 187.108 70.4241 187.108 70.7441C187.108 71.0801 187.22 71.3361 187.476 71.5601C187.604 71.6721 187.876 71.8321 188.292 72.0241C189.06 72.3921 189.604 72.7441 189.908 73.0641C190.372 73.5441 190.596 74.1201 190.564 74.7921C190.5 76.4081 189.524 77.2081 187.62 77.2081C186.836 77.2081 186.196 77.0001 185.7 76.5841C185.188 76.1681 184.916 75.5921 184.868 74.8241C184.852 74.6641 184.916 74.6001 185.076 74.6001H186.388C186.516 74.6001 186.596 74.6641 186.628 74.8241C186.74 75.3361 187.044 75.5761 187.572 75.5921C188.292 75.6081 188.66 75.3361 188.66 74.7281C188.676 74.4401 188.548 74.2001 188.308 73.9921C188.164 73.8641 187.908 73.7041 187.572 73.5121C186.772 73.0961 186.228 72.7281 185.924 72.4241C185.444 71.9441 185.22 71.3681 185.252 70.6961C185.348 69.1761 186.34 68.3921 188.244 68.3601C189.028 68.3441 189.668 68.5361 190.132 68.9041C190.644 69.3201 190.916 69.9121 190.948 70.6801Z" fill="#282828"/>
<path d="M183.652 64.744C183.652 65.736 183.22 66.552 182.388 67.224C182.276 67.32 182.18 67.288 182.1 67.16L181.748 66.616C181.668 66.488 181.684 66.376 181.796 66.28C182.068 66.056 182.26 65.832 182.356 65.608C181.956 65.48 181.78 65.192 181.796 64.728C181.812 64.456 181.908 64.248 182.084 64.072C182.26 63.896 182.5 63.816 182.772 63.816C183.364 63.816 183.652 64.12 183.652 64.744Z" fill="#282828"/>
<path d="M178.681 68.776L178.617 69.816C178.601 69.976 178.521 70.04 178.361 70.04H176.937C176.793 70.04 176.697 70.12 176.697 70.264L176.473 74.536C176.441 75.144 176.633 75.448 177.017 75.448C177.305 75.448 177.561 75.448 177.785 75.432C177.833 75.432 177.881 75.464 177.929 75.512C177.977 75.56 177.993 75.608 177.993 75.656L177.913 76.888C177.897 77.032 177.817 77.112 177.657 77.112H176.489C175.769 77.112 175.257 76.936 174.953 76.616C174.665 76.28 174.505 75.752 174.505 75.016C174.505 74.744 174.505 74.52 174.521 74.344L174.761 70.264C174.761 70.12 174.697 70.04 174.537 70.04H173.593C173.449 70.04 173.385 69.976 173.401 69.816L173.481 68.776C173.481 68.632 173.561 68.552 173.705 68.552H174.617C174.761 68.552 174.841 68.472 174.857 68.328L174.937 66.648C174.953 66.488 175.033 66.408 175.193 66.408L176.681 66.424C176.841 66.424 176.905 66.488 176.905 66.648L176.809 68.328C176.793 68.472 176.873 68.552 177.017 68.552H178.473C178.617 68.552 178.697 68.632 178.681 68.776Z" fill="#282828"/>
<path d="M170.772 73.112C170.756 73.256 170.676 73.336 170.516 73.336H165.364C165.204 73.336 165.14 73.416 165.14 73.56C165.188 75 165.812 75.72 167.012 75.72C167.844 75.72 168.356 75.288 168.58 74.44C168.612 74.28 168.708 74.2 168.852 74.2H170.372C170.532 74.2 170.596 74.28 170.564 74.424C170.388 75.336 169.988 76.024 169.348 76.52C168.724 77.016 167.94 77.256 166.996 77.256C165.62 77.224 164.612 76.856 163.988 76.104C163.396 75.416 163.124 74.36 163.156 72.936C163.22 69.88 164.58 68.36 167.22 68.36C169.62 68.36 170.804 69.656 170.804 72.232C170.804 72.456 170.788 72.744 170.772 73.112ZM168.916 71.608C168.932 71.064 168.788 70.616 168.484 70.296C168.196 69.976 167.764 69.816 167.22 69.832C166.676 69.832 166.228 70.008 165.876 70.328C165.54 70.664 165.332 71.096 165.268 71.64C165.252 71.784 165.316 71.848 165.46 71.848H168.692C168.836 71.848 168.916 71.768 168.916 71.608Z" fill="#282828"/>
<path d="M160.813 75.56L160.733 76.696C160.733 76.856 160.653 76.92 160.493 76.92H154.093C153.949 76.92 153.869 76.856 153.885 76.696L154.461 66.088C154.477 65.944 154.541 65.864 154.701 65.864H156.285C156.429 65.864 156.493 65.944 156.493 66.088L156.013 75.112C155.997 75.272 156.061 75.336 156.221 75.336H160.605C160.749 75.336 160.829 75.416 160.813 75.56Z" fill="#282828"/>
</svg>
